# xmcd CD database file
#
# Track frame offsets:
#	150
#	19135
#	45633
#	72779
#	95884
#
# Disc length: 1632 seconds
#
# Revision: 0
# Processed by: cddbd v1.5.1PL0 Copyright (c) Steve Scherf et al.
# Submitted via: CDex 1.51
#
DISCID=3e065e05
DTITLE=Antique Notes - Antique Notes
DYEAR=2004
DGENRE=Ballad
TTITLE0=ひとつぶの涙
TTITLE1=偶然
TTITLE2=街
TTITLE3=空の青
TTITLE4=いつか
EXTD=YEAR: 2004/04/12
EXTT0=
EXTT1=
EXTT2=
EXTT3=
EXTT4=
PLAYORDER=
